<svg xmlns="http://www.w3.org/2000/svg" viewBox="0 0 200 200" width="256" height="256"><defs><clipPath id="bgclip"><circle cx="100" cy="100" r="95"/></clipPath></defs><circle cx="100" cy="100" r="95" fill="#E8A0BF"/><g clip-path="url(#bgclip)"><path d="M52,155 C52,130 70,120 100,120 C130,120 148,130 148,155 L140,200 L60,200 Z" fill="#34495E"/><path d="M52,158 C52,150 60,146 70,146 L130,146 C140,146 148,150 148,158 L148,150 L52,150 Z" fill="#273747" opacity="0.35"/><path d="M84,121 L100,150 L116,121 Z" fill="#F4F4F6"/><path d="M80,120 L100,148 L90,121 Z" fill="#273747"/><path d="M120,120 L100,148 L110,121 Z" fill="#273747"/><path d="M96,128 L104,128 L102,158 L98,158 Z" fill="#B23A48"/><path d="M96,128 L104,128 L100,134 Z" fill="#8E2C38"/><rect x="88" y="102" width="24" height="25" rx="4" fill="#F2B98A"/><path d="M88,107 C95,115 105,115 112,107 L112,112 C105,120 95,120 88,112 Z" fill="#D99356" opacity="0.4"/><circle cx="100" cy="80" r="35" fill="#F2B98A"/><path d="M62,75 C58,35 100,28 115,38 C132,32 142,52 138,75 C132,65 125,60 115,62 C100,55 80,60 62,75 Z" fill="#1A1A1A"/><path d="M70,52 C85,42 105,42 118,48" stroke="#434343" stroke-width="3" fill="none" stroke-linecap="round" opacity="0.7"/><path d="M78,71 Q86,68 93,72" stroke="#171717" stroke-width="2.5" fill="none" stroke-linecap="round"/><path d="M122,71 Q114,68 107,72" stroke="#171717" stroke-width="2.5" fill="none" stroke-linecap="round"/><path d="M100,76 L100,84 Q100,86 103,86" stroke="#D99356" stroke-width="2" fill="none" stroke-linecap="round"/><path d="M88,89 Q94,87 99,89 Q94,92 88,91 Z" fill="#1A1A1A"/><path d="M112,89 Q106,87 101,89 Q106,92 112,91 Z" fill="#1A1A1A"/><path d="M91,94 L109,94" stroke="#2C3E50" stroke-width="2.5" fill="none" stroke-linecap="round"/><circle cx="86" cy="80" r="5.2" fill="#fff"/><circle cx="86" cy="80" r="3.3" fill="#6B4226"/><circle cx="86" cy="80" r="1.7" fill="#2C3E50"/><circle cx="87.2" cy="78.8" r="0.95" fill="#fff"/><circle cx="114" cy="80" r="5.2" fill="#fff"/><circle cx="114" cy="80" r="3.3" fill="#6B4226"/><circle cx="114" cy="80" r="1.7" fill="#2C3E50"/><circle cx="115.2" cy="78.8" r="0.95" fill="#fff"/></g></svg>