<svg xmlns="http://www.w3.org/2000/svg" viewBox="0 0 200 200" width="256" height="256"><defs><clipPath id="bgclip"><circle cx="100" cy="100" r="95"/></clipPath></defs><circle cx="100" cy="100" r="95" fill="#BB6BD9"/><g clip-path="url(#bgclip)"><path d="M52,155 C52,130 70,120 100,120 C130,120 148,130 148,155 L140,200 L60,200 Z" fill="#FF6B6B"/><path d="M52,158 C52,150 60,146 70,146 L130,146 C140,146 148,150 148,158 L148,150 L52,150 Z" fill="#c15151" opacity="0.35"/><path d="M85,123 C90,135 110,135 115,123 Z" fill="#c15151"/><path d="M134,58 C160,52 168,86 150,104 C146,86 140,72 130,64 Z" fill="#6B3D2E"/><rect x="88" y="102" width="24" height="25" rx="4" fill="#7A4E32"/><path d="M88,107 C95,115 105,115 112,107 L112,112 C105,120 95,120 88,112 Z" fill="#5E3A24" opacity="0.4"/><circle cx="100" cy="80" r="35" fill="#7A4E32"/><path d="M64,74 C60,42 100,30 122,44 C134,52 138,64 134,76 C128,62 116,56 108,58 C94,50 78,56 64,74 Z" fill="#6B3D2E"/><path d="M78,71 Q86,68 93,72" stroke="#603629" stroke-width="2.5" fill="none" stroke-linecap="round"/><path d="M122,71 Q114,68 107,72" stroke="#603629" stroke-width="2.5" fill="none" stroke-linecap="round"/><path d="M100,76 L100,84 Q100,86 103,86" stroke="#5E3A24" stroke-width="2" fill="none" stroke-linecap="round"/><path d="M91,95 Q100,98 109,89" stroke="#2C3E50" stroke-width="2.5" fill="none" stroke-linecap="round"/><ellipse cx="86" cy="80" rx="6" ry="4" fill="#fff"/><circle cx="86" cy="80" r="3.2" fill="#6B4226"/><circle cx="86" cy="80" r="1.6" fill="#2C3E50"/><circle cx="87.2" cy="78.8" r="0.9" fill="#fff"/><ellipse cx="114" cy="80" rx="6" ry="4" fill="#fff"/><circle cx="114" cy="80" r="3.2" fill="#6B4226"/><circle cx="114" cy="80" r="1.6" fill="#2C3E50"/><circle cx="115.2" cy="78.8" r="0.9" fill="#fff"/><circle cx="86" cy="80" r="10" fill="rgba(10,12,20,0.82)" stroke="#111827" stroke-width="2.4"/><circle cx="114" cy="80" r="10" fill="rgba(10,12,20,0.82)" stroke="#111827" stroke-width="2.4"/><line x1="96" y1="80" x2="104" y2="80" stroke="#111827" stroke-width="2.4"/></g></svg>