<svg xmlns="http://www.w3.org/2000/svg" viewBox="0 0 200 200" width="256" height="256"><defs><clipPath id="bgclip"><circle cx="100" cy="100" r="95"/></clipPath></defs><circle cx="100" cy="100" r="95" fill="#7FB7BE"/><g clip-path="url(#bgclip)"><path d="M52,155 C52,130 70,120 100,120 C130,120 148,130 148,155 L140,200 L60,200 Z" fill="#C97A40"/><path d="M52,158 C52,150 60,146 70,146 L130,146 C140,146 148,150 148,158 L148,150 L52,150 Z" fill="#985c30" opacity="0.35"/><path d="M84,120 Q100,130 116,120 L116,127 Q100,137 84,127 Z" fill="#985c30"/><line x1="100" y1="128" x2="100" y2="196" stroke="#dfaf8c" stroke-width="2.6"/><circle cx="100" cy="140" r="1.8" fill="#dfaf8c"/><circle cx="100" cy="154" r="1.8" fill="#dfaf8c"/><path d="M60,192 Q100,200 140,192" stroke="#dfaf8c" stroke-width="2.2" fill="none" opacity="0.6"/><circle cx="100" cy="74" r="50" fill="#E8C97A"/><rect x="88" y="102" width="24" height="25" rx="4" fill="#F2B98A"/><path d="M88,107 C95,115 105,115 112,107 L112,112 C105,120 95,120 88,112 Z" fill="#D99356" opacity="0.4"/><circle cx="100" cy="80" r="35" fill="#F2B98A"/><path d="M78,70 Q86,64 94,70" stroke="#d0b46d" stroke-width="2.5" fill="none" stroke-linecap="round"/><path d="M122,70 Q114,64 106,70" stroke="#d0b46d" stroke-width="2.5" fill="none" stroke-linecap="round"/><path d="M100,76 L100,84 Q100,86 103,86" stroke="#D99356" stroke-width="2" fill="none" stroke-linecap="round"/><path d="M91,94 L109,94" stroke="#2C3E50" stroke-width="2.5" fill="none" stroke-linecap="round"/><circle cx="86" cy="80" r="5.2" fill="#fff"/><circle cx="86" cy="80" r="3.3" fill="#6B4226"/><circle cx="86" cy="80" r="1.7" fill="#2C3E50"/><circle cx="87.2" cy="78.8" r="0.95" fill="#fff"/><circle cx="114" cy="80" r="5.2" fill="#fff"/><circle cx="114" cy="80" r="3.3" fill="#6B4226"/><circle cx="114" cy="80" r="1.7" fill="#2C3E50"/><circle cx="115.2" cy="78.8" r="0.95" fill="#fff"/></g></svg>