<svg xmlns="http://www.w3.org/2000/svg" viewBox="0 0 200 200" width="256" height="256"><defs><clipPath id="bgclip"><circle cx="100" cy="100" r="95"/></clipPath></defs><circle cx="100" cy="100" r="95" fill="#5F5AA2"/><g clip-path="url(#bgclip)"><path d="M52,155 C52,130 70,120 100,120 C130,120 148,130 148,155 L140,200 L60,200 Z" fill="#FF6B6B"/><path d="M52,158 C52,150 60,146 70,146 L130,146 C140,146 148,150 148,158 L148,150 L52,150 Z" fill="#c15151" opacity="0.35"/><path d="M85,123 C90,135 110,135 115,123 Z" fill="#c15151"/><rect x="88" y="102" width="24" height="25" rx="4" fill="#FAD09E"/><path d="M88,107 C95,115 105,115 112,107 L112,112 C105,120 95,120 88,112 Z" fill="#E0A96D" opacity="0.4"/><circle cx="100" cy="80" r="35" fill="#FAD09E"/><path d="M 96 46 Q 92 33 91 43" stroke="#E8C97A" stroke-width="3.5" fill="none" stroke-linecap="round"/><path d="M 101 44 Q 103 31 104 41" stroke="#E8C97A" stroke-width="3.5" fill="none" stroke-linecap="round"/><path d="M 107 46 Q 111 33 110 43" stroke="#E8C97A" stroke-width="3.5" fill="none" stroke-linecap="round"/><path d="M78,71 Q86,68 93,72" stroke="#d0b46d" stroke-width="2.5" fill="none" stroke-linecap="round"/><path d="M122,71 Q114,68 107,72" stroke="#d0b46d" stroke-width="2.5" fill="none" stroke-linecap="round"/><path d="M100,76 L100,84 Q100,86 103,86" stroke="#E0A96D" stroke-width="2" fill="none" stroke-linecap="round"/><path d="M92,92 Q100,101 108,92" stroke="#2C3E50" stroke-width="2.5" fill="none" stroke-linecap="round"/><circle cx="86" cy="80" r="5.2" fill="#fff"/><circle cx="86" cy="80" r="3.3" fill="#4A90D9"/><circle cx="86" cy="80" r="1.7" fill="#2C3E50"/><circle cx="87.2" cy="78.8" r="0.95" fill="#fff"/><circle cx="114" cy="80" r="5.2" fill="#fff"/><circle cx="114" cy="80" r="3.3" fill="#4A90D9"/><circle cx="114" cy="80" r="1.7" fill="#2C3E50"/><circle cx="115.2" cy="78.8" r="0.95" fill="#fff"/></g></svg>